<svg width="116" height="48" fill="none" xmlns="http://www.w3.org/2000/svg"><mask id="a" style="mask-type:alpha" maskUnits="userSpaceOnUse" x="-4" y="-6" width="120" height="61"><path fill="#D9D9D9" d="M-3.311-5.793h119.172v60.414H-3.311z"/></mask><g mask="url(#a)"><path d="m121.426 0 .229 5.181H9.094L0 15.191V0h121.426Z" fill="#B3B3B3"/><path d="m131.586 47.757-3.277-3.912H44.251L15.243 11.913 0 28.696v19.071h131.586v-.01ZM12.756 33.565H6.222V27.03h6.534v6.534Zm0 10.28H6.222V37.31h6.534v6.534Zm10.862-10.28h-6.534V27.03h6.534v6.534Zm0 10.28h-6.534V37.31h6.534v6.534Z" fill="#B3B3B3"/><path d="M40.008 31.385V24.1L23.01 4.371l-6.458.072 23.456 26.942Z" fill="#B3B3B3"/><path d="M46.512 37.414a.892.892 0 0 1-.66-.256.892.892 0 0 1-.255-.66V12.704c0-.269.085-.488.256-.66.17-.17.39-.255.659-.255h11.166c2.099 0 3.82.292 5.162.878 1.342.586 2.33 1.428 2.965 2.526.659 1.074.988 2.355.988 3.844 0 .879-.17 1.66-.512 2.343a5.244 5.244 0 0 1-1.208 1.647c-.464.44-.903.757-1.318.952.927.44 1.745 1.16 2.453 2.16.732 1 1.098 2.172 1.098 3.515 0 1.61-.366 3.002-1.098 4.173-.708 1.147-1.758 2.038-3.149 2.673-1.366.61-3.05.915-5.052.915H46.512Zm5.638-4.76h5.125c1.05 0 1.843-.304 2.38-.915.536-.61.805-1.305.805-2.086 0-.854-.28-1.574-.842-2.16-.537-.586-1.318-.879-2.343-.879H52.15v6.04Zm0-10.69h4.796c1 0 1.745-.255 2.233-.768.512-.513.768-1.172.768-1.977 0-.78-.256-1.415-.768-1.904-.488-.512-1.233-.768-2.233-.768H52.15v5.418ZM77.926 37.414a.892.892 0 0 1-.659-.256.892.892 0 0 1-.256-.66V17.536h-6.516a.892.892 0 0 1-.66-.256.975.975 0 0 1-.256-.66v-3.916c0-.269.086-.488.257-.66.17-.17.39-.255.659-.255H90.19c.269 0 .489.085.66.256.17.17.256.39.256.659v3.917a.975.975 0 0 1-.257.659.892.892 0 0 1-.659.256h-6.516V36.5a.892.892 0 0 1-.256.659.892.892 0 0 1-.66.256h-4.832ZM104.94 37.78c-2.319 0-4.308-.378-5.968-1.135-1.635-.757-2.916-1.867-3.844-3.331-.903-1.465-1.403-3.283-1.5-5.455a141.948 141.948 0 0 1 0-6.516c.097-2.124.61-3.918 1.537-5.382.927-1.489 2.22-2.611 3.88-3.368 1.66-.781 3.625-1.172 5.895-1.172 1.61 0 3.099.208 4.466.623 1.367.39 2.563.976 3.588 1.757a7.88 7.88 0 0 1 2.379 2.782c.586 1.074.891 2.295.915 3.661a.596.596 0 0 1-.219.55.746.746 0 0 1-.549.219h-4.943c-.317 0-.561-.061-.732-.183-.171-.146-.317-.403-.439-.769-.342-1.293-.903-2.172-1.684-2.636-.757-.488-1.696-.732-2.819-.732-1.342 0-2.404.378-3.185 1.135-.781.732-1.208 1.965-1.281 3.698a85.213 85.213 0 0 0 0 6.15c.073 1.733.5 2.977 1.281 3.734.781.732 1.843 1.098 3.185 1.098 1.123 0 2.075-.244 2.856-.732.781-.488 1.33-1.367 1.647-2.636.098-.366.232-.61.403-.732.195-.146.451-.22.768-.22h4.943c.219 0 .402.074.549.22.171.146.244.33.219.55-.024 1.366-.329 2.598-.915 3.697-.561 1.074-1.354 2.001-2.379 2.782-1.025.757-2.221 1.342-3.588 1.757-1.367.39-2.856.586-4.466.586Z" fill="#EF7F1A"/></g></svg>