<svg width="116" height="48" viewBox="0 0 116 48" fill="none" xmlns="http://www.w3.org/2000/svg">
<mask id="mask0_75_283" style="mask-type:alpha" maskUnits="userSpaceOnUse" x="-4" y="-6" width="120" height="61">
<rect x="-3.31055" y="-5.79306" width="119.172" height="60.4138" fill="#D9D9D9"/>
</mask>
<g mask="url(#mask0_75_283)">
<path d="M121.426 0L121.655 5.18146H9.09357L0 15.1906V0H121.426Z" fill="#57A7B3"/>
<path d="M131.586 47.7568L128.309 43.8447H44.2505L15.2427 11.9132L0 28.6957V47.7672H131.586V47.7568ZM12.756 33.565H6.22191V27.031H12.756V33.565ZM12.756 43.8447H6.22191V37.3107H12.756V43.8447ZM23.6183 33.565H17.0843V27.031H23.6183V33.565ZM23.6183 43.8447H17.0843V37.3107H23.6183V43.8447Z" fill="#57A7B3"/>
<path d="M40.0079 31.3847L40.0076 24.1009L23.0103 4.37068L16.5516 4.44277L40.0079 31.3847Z" fill="#57A7B3"/>
<path d="M46.5119 37.4138C46.2434 37.4138 46.0238 37.3284 45.8529 37.1576C45.6821 36.9867 45.5967 36.7671 45.5967 36.4986V12.7026C45.5967 12.4341 45.6821 12.2145 45.8529 12.0437C46.0238 11.8728 46.2434 11.7874 46.5119 11.7874H57.6777C59.7766 11.7874 61.4973 12.0803 62.8396 12.666C64.1819 13.2518 65.1704 14.0938 65.805 15.192C66.4639 16.2659 66.7934 17.5472 66.7934 19.036C66.7934 19.9146 66.6226 20.6956 66.2809 21.379C65.9636 22.038 65.5609 22.5871 65.0728 23.0264C64.6091 23.4657 64.1697 23.783 63.7548 23.9782C64.6823 24.4176 65.4999 25.1375 66.2077 26.1382C66.9398 27.1388 67.3059 28.3103 67.3059 29.6527C67.3059 31.2635 66.9398 32.6546 66.2077 33.8261C65.4999 34.9732 64.4504 35.864 63.0593 36.4986C61.6925 37.1087 60.0085 37.4138 58.0072 37.4138H46.5119ZM52.1497 32.6546H57.275C58.3245 32.6546 59.1177 32.3496 59.6546 31.7394C60.1915 31.1292 60.46 30.4337 60.46 29.6527C60.46 28.7985 60.1793 28.0785 59.618 27.4927C59.0811 26.907 58.3001 26.6141 57.275 26.6141H52.1497V32.6546ZM52.1497 21.9647H56.9455C57.9462 21.9647 58.6906 21.7085 59.1787 21.196C59.6912 20.6834 59.9475 20.0245 59.9475 19.2191C59.9475 18.4381 59.6912 17.8035 59.1787 17.3154C58.6906 16.8028 57.9462 16.5466 56.9455 16.5466H52.1497V21.9647Z" fill="#EF7F1A"/>
<path d="M77.9263 37.4138C77.6579 37.4138 77.4382 37.3284 77.2674 37.1576C77.0965 36.9867 77.0111 36.7671 77.0111 36.4986V17.535H70.4947C70.2262 17.535 70.0065 17.4496 69.8357 17.2788C69.6648 17.0835 69.5794 16.8639 69.5794 16.6198V12.7026C69.5794 12.4341 69.6648 12.2145 69.8357 12.0437C70.0065 11.8728 70.2262 11.7874 70.4947 11.7874H90.1904C90.4589 11.7874 90.6785 11.8728 90.8494 12.0437C91.0202 12.2145 91.1056 12.4341 91.1056 12.7026V16.6198C91.1056 16.8639 91.0202 17.0835 90.8494 17.2788C90.6785 17.4496 90.4589 17.535 90.1904 17.535H83.674V36.4986C83.674 36.7671 83.5885 36.9867 83.4177 37.1576C83.2469 37.3284 83.0272 37.4138 82.7587 37.4138H77.9263Z" fill="#EF7F1A"/>
<path d="M104.94 37.7799C102.621 37.7799 100.632 37.4016 98.9723 36.645C97.3371 35.8884 96.0558 34.778 95.1283 33.3136C94.2253 31.8492 93.725 30.031 93.6274 27.8588C93.603 26.8582 93.5908 25.7843 93.5908 24.6372C93.5908 23.4901 93.603 22.3919 93.6274 21.3424C93.725 19.2191 94.2375 17.4252 95.165 15.9608C96.0924 14.4721 97.3859 13.3494 99.0455 12.5928C100.705 11.8118 102.67 11.4213 104.94 11.4213C106.55 11.4213 108.039 11.6287 109.406 12.0437C110.773 12.4341 111.969 13.0199 112.994 13.8009C114.019 14.5575 114.812 15.4849 115.373 16.5832C115.959 17.6571 116.264 18.8774 116.288 20.2441C116.313 20.4638 116.24 20.6468 116.069 20.7933C115.922 20.9397 115.739 21.0129 115.52 21.0129H110.577C110.26 21.0129 110.016 20.9519 109.845 20.8299C109.674 20.6834 109.528 20.4272 109.406 20.0611C109.064 18.7675 108.503 17.8889 107.722 17.4252C106.965 16.9371 106.026 16.693 104.903 16.693C103.561 16.693 102.499 17.0713 101.718 17.8279C100.937 18.5601 100.51 19.7926 100.437 21.5254C100.363 23.5267 100.363 25.5769 100.437 27.6758C100.51 29.4086 100.937 30.6533 101.718 31.4099C102.499 32.1421 103.561 32.5082 104.903 32.5082C106.026 32.5082 106.978 32.2641 107.759 31.776C108.54 31.2879 109.089 30.4093 109.406 29.1401C109.504 28.7741 109.638 28.53 109.809 28.408C110.004 28.2615 110.26 28.1883 110.577 28.1883H115.52C115.739 28.1883 115.922 28.2615 116.069 28.408C116.24 28.5544 116.313 28.7374 116.288 28.9571C116.264 30.3238 115.959 31.5564 115.373 32.6546C114.812 33.7285 114.019 34.6559 112.994 35.4369C111.969 36.1935 110.773 36.7793 109.406 37.1942C108.039 37.5847 106.55 37.7799 104.94 37.7799Z" fill="#EF7F1A"/>
</g>
</svg>
