<svg width="15" height="15" viewBox="0 0 15 15" fill="none" xmlns="http://www.w3.org/2000/svg">
<g clip-path="url(#clip0_6_35)">
<path d="M8.50381 8.85C7.40381 9.985 7.32381 11.4 7.22881 14.5C10.1188 14.5 12.1138 14.49 13.1438 13.49C14.1438 12.46 14.1538 10.37 14.1538 7.575C11.0538 7.675 9.63881 7.75 8.50381 8.85ZM0.153809 7.575C0.153809 10.37 0.163809 12.46 1.16381 13.49C2.19381 14.49 4.18881 14.5 7.07881 14.5C6.97881 11.4 6.90381 9.985 5.80381 8.85C4.66881 7.75 3.25381 7.67 0.153809 7.575ZM7.07881 0.5C4.19381 0.5 2.19381 0.51 1.16381 1.51C0.163809 2.54 0.153809 4.63 0.153809 7.425C3.25381 7.325 4.66881 7.25 5.80381 6.15C6.90381 5.015 6.98381 3.6 7.07881 0.5ZM8.50381 6.15C7.40381 5.015 7.32381 3.6 7.22881 0.5C10.1188 0.5 12.1138 0.51 13.1438 1.51C14.1438 2.54 14.1538 4.63 14.1538 7.425C11.0538 7.325 9.63881 7.25 8.50381 6.15Z" fill="white"/>
<path d="M14.1538 7.575V7.425C11.0538 7.325 9.63881 7.25 8.50381 6.15C7.40381 5.015 7.32381 3.6 7.22881 0.5H7.07881C6.97881 3.6 6.90381 5.015 5.80381 6.15C4.66881 7.25 3.25381 7.33 0.153809 7.425V7.575C3.25381 7.675 4.66881 7.75 5.80381 8.85C6.90381 9.985 6.98381 11.4 7.07881 14.5H7.22881C7.32881 11.4 7.40381 9.985 8.50381 8.85C9.63881 7.75 11.0538 7.67 14.1538 7.575Z" fill="#1A1B20"/>
</g>
<defs>
<clipPath id="clip0_6_35">
<rect width="14" height="14" fill="white" transform="translate(0.153809 0.5)"/>
</clipPath>
</defs>
</svg>
