<svg width="15" height="15" fill="none" xmlns="http://www.w3.org/2000/svg"><g clip-path="url(#a)"><path d="M8.504 8.85c-1.1 1.135-1.18 2.55-1.275 5.65 2.89 0 4.885-.01 5.915-1.01 1-1.03 1.01-3.12 1.01-5.915-3.1.1-4.515.175-5.65 1.275ZM.154 7.575c0 2.795.01 4.885 1.01 5.915 1.03 1 3.025 1.01 5.915 1.01-.1-3.1-.175-4.515-1.275-5.65-1.135-1.1-2.55-1.18-5.65-1.275ZM7.079.5C4.194.5 2.194.51 1.164 1.51c-1 1.03-1.01 3.12-1.01 5.915 3.1-.1 4.515-.175 5.65-1.275C6.904 5.015 6.984 3.6 7.079.5Zm1.425 5.65C7.404 5.015 7.324 3.6 7.229.5c2.89 0 4.885.01 5.915 1.01 1 1.03 1.01 3.12 1.01 5.915-3.1-.1-4.515-.175-5.65-1.275Z" fill="#fff"/><path d="M14.154 7.575v-.15c-3.1-.1-4.515-.175-5.65-1.275C7.404 5.015 7.324 3.6 7.229.5h-.15c-.1 3.1-.175 4.515-1.275 5.65-1.135 1.1-2.55 1.18-5.65 1.275v.15c3.1.1 4.515.175 5.65 1.275 1.1 1.135 1.18 2.55 1.275 5.65h.15c.1-3.1.175-4.515 1.275-5.65 1.135-1.1 2.55-1.18 5.65-1.275Z" fill="#1A1B20"/></g><defs><clipPath id="a"><path fill="#fff" transform="translate(.154 .5)" d="M0 0h14v14H0z"/></clipPath></defs></svg>