<svg width="20" height="20" viewBox="0 0 20 20" fill="none" xmlns="http://www.w3.org/2000/svg">
<g id="fe:warning">
<g id="feWarning0">
<g id="feWarning1">
<path id="feWarning2" d="M10.0001 16.6667C11.7682 16.6667 13.4639 15.9644 14.7141 14.7141C15.9644 13.4639 16.6667 11.7682 16.6667 10.0001C16.6667 8.23197 15.9644 6.53628 14.7141 5.28604C13.4639 4.03579 11.7682 3.33341 10.0001 3.33341C8.23197 3.33341 6.53628 4.03579 5.28604 5.28604C4.03579 6.53628 3.33341 8.23197 3.33341 10.0001C3.33341 11.7682 4.03579 13.4639 5.28604 14.7141C6.53628 15.9644 8.23197 16.6667 10.0001 16.6667ZM10.0001 18.3334C5.39758 18.3334 1.66675 14.6026 1.66675 10.0001C1.66675 5.39758 5.39758 1.66675 10.0001 1.66675C14.6026 1.66675 18.3334 5.39758 18.3334 10.0001C18.3334 14.6026 14.6026 18.3334 10.0001 18.3334ZM9.16675 13.3334H10.8334V15.0001H9.16675V13.3334ZM9.16675 5.00008H10.8334V11.6667H9.16675V5.00008Z" fill="#1EA69A"/>
</g>
</g>
</g>
</svg>
