<svg width="22" height="13" fill="none" xmlns="http://www.w3.org/2000/svg"><path d="M20.96 11.315c0-.083-.083-.083-.083-.166-.332-.664-1.08-1.494-2.076-2.407-.498-.415-.747-.748-.913-.914-.25-.332-.25-.58-.166-.913.083-.249.415-.664.996-1.411.332-.415.498-.664.747-.914 1.246-1.66 1.827-2.74 1.66-3.237l-.082-.083c-.083-.083-.166-.166-.332-.166-.166-.084-.415-.084-.664 0H16.31l-.084.083c-.082.083-.082.083-.082.166-.333.913-.748 1.66-1.163 2.49-.249.415-.498.83-.747 1.163-.25.332-.415.58-.581.747-.166.166-.332.249-.415.415-.083.083-.25.166-.25.083-.082 0-.165 0-.165-.083l-.25-.25c-.082-.082-.082-.248-.166-.414V1.353c0-.083-.083-.25-.083-.333l-.249-.249c-.083-.083-.249-.083-.332-.166A7.447 7.447 0 0 0 10.25.44c-1.328 0-2.242.083-2.574.25-.166.082-.332.165-.415.331-.166.167-.166.25-.083.25.415.083.747.249.913.498l.083.166c.083.083.083.249.166.498s.083.498.083.83V4.59c0 .416-.083.665-.083.914s-.083.415-.166.498c-.083.166-.083.249-.166.249 0 0 0 .083-.083.083s-.166.083-.332.083c-.083 0-.249-.083-.332-.166a1 1 0 0 1-.415-.415c-.166-.166-.332-.415-.498-.747-.166-.332-.415-.665-.581-1.163L5.6 3.594c-.083-.166-.25-.498-.416-.913-.166-.415-.332-.747-.498-1.162a1.147 1.147 0 0 0-.249-.332h-.083s-.083-.083-.166-.083-.166-.084-.249-.084H.951c-.332 0-.498.084-.58.167l-.084.083v.166c0 .083 0 .166.083.332.415.996.913 1.992 1.412 2.989.498.913.996 1.743 1.328 2.324.415.581.747 1.162 1.162 1.66.415.499.664.83.747.997l.332.332.25.25c.166.165.415.414.747.663.332.25.747.498 1.162.747.415.25.913.416 1.412.582.58.166 1.079.249 1.577.166h1.245a.754.754 0 0 0 .581-.25l.083-.082c0-.084.084-.084.084-.167v-.332c0-.332 0-.58.082-.83.084-.249.084-.415.167-.581.083-.166.166-.249.249-.332l.166-.166h.083c.166-.083.415 0 .58.166.25.166.499.415.665.664.166.25.415.498.747.83.332.332.581.582.748.665l.248.166c.167.083.333.166.582.249.249.083.415.083.58.083l2.824-.083c.249 0 .498-.083.664-.166.166-.083.249-.166.249-.332v-.333c-.166-.166-.166-.249-.166-.332Z" fill="#fff"/></svg>