<svg width="22" height="32" fill="none" xmlns="http://www.w3.org/2000/svg"><path d="M6.76 23a.505.505 0 0 1-.34-.12.505.505 0 0 1-.12-.34v-2.56H4.76a.505.505 0 0 1-.34-.12.505.505 0 0 1-.12-.34v-.46c0-.133.04-.24.12-.32a.463.463 0 0 1 .34-.14H6.3v-1.14H4.76a.505.505 0 0 1-.34-.12.505.505 0 0 1-.12-.34v-.68c0-.133.04-.24.12-.32a.463.463 0 0 1 .34-.14H6.3V9.48c0-.147.04-.26.12-.34A.463.463 0 0 1 6.76 9h5.08c.987 0 1.84.16 2.56.48.733.32 1.3.8 1.7 1.44.4.627.6 1.413.6 2.36 0 .933-.2 1.707-.6 2.32-.4.613-.967 1.08-1.7 1.4-.72.307-1.573.46-2.56.46H8.3v1.14h3.86a.4.4 0 0 1 .32.14.4.4 0 0 1 .14.32v.46a.463.463 0 0 1-.14.34.433.433 0 0 1-.32.12H8.3v2.56a.463.463 0 0 1-.14.34c-.08.08-.193.12-.34.12H6.76Zm1.52-7.14h3.46c.987 0 1.727-.22 2.22-.66.493-.44.74-1.08.74-1.92 0-.827-.24-1.467-.72-1.92-.48-.453-1.227-.68-2.24-.68H8.28v5.18Z" fill="#000"/></svg>